<?xml version="1.0" encoding="UTF-8"?>
<svg xmlns="http://www.w3.org/2000/svg" xmlns:xlink="http://www.w3.org/1999/xlink" width="50px" height="50px" viewBox="0 0 50 48" version="1.1">
<g id="surface1">
<path style=" stroke:none;fill-rule:nonzero;fill:rgb(0%,0%,35.686275%);fill-opacity:1;" d="M 8.855469 0 L 41.144531 0 C 46.042969 0 50 3.898438 50 8.71875 L 50 39.28125 C 50 44.101562 46.042969 48 41.144531 48 L 8.855469 48 C 3.957031 48 0 44.101562 0 39.28125 L 0 8.71875 C 0 3.898438 3.957031 0 8.855469 0 Z M 8.855469 0 "/>
<path style=" stroke:none;fill-rule:nonzero;fill:rgb(60.000002%,60.000002%,100%);fill-opacity:1;" d="M 20.082031 28.71875 L 12.332031 28.71875 L 10.75 33.558594 C 10.707031 33.742188 10.542969 33.867188 10.355469 33.847656 L 6.4375 33.847656 C 6.207031 33.847656 6.144531 33.722656 6.207031 33.476562 L 12.917969 14.542969 C 12.980469 14.339844 13.042969 14.152344 13.125 13.90625 C 13.207031 13.476562 13.25 13.027344 13.25 12.574219 C 13.230469 12.472656 13.3125 12.371094 13.417969 12.347656 L 18.8125 12.347656 C 18.957031 12.347656 19.0625 12.410156 19.082031 12.511719 L 26.6875 33.4375 C 26.75 33.660156 26.6875 33.765625 26.480469 33.765625 L 22.125 33.765625 C 21.980469 33.785156 21.832031 33.683594 21.792969 33.539062 L 20.082031 28.617188 Z M 13.542969 24.636719 L 18.832031 24.636719 C 18.707031 24.207031 18.542969 23.691406 18.355469 23.160156 C 18.167969 22.605469 17.980469 22.011719 17.792969 21.394531 C 17.582031 20.757812 17.394531 20.144531 17.1875 19.507812 C 16.980469 18.871094 16.792969 18.277344 16.625 17.683594 C 16.457031 17.109375 16.3125 16.574219 16.167969 16.082031 L 16.125 16.082031 C 15.9375 16.964844 15.707031 17.847656 15.417969 18.726562 C 15.105469 19.710938 14.792969 20.738281 14.457031 21.765625 C 14.1875 22.808594 13.855469 23.773438 13.542969 24.636719 Z M 13.542969 24.636719 "/>
<path style=" stroke:none;fill-rule:nonzero;fill:rgb(60.000002%,60.000002%,100%);fill-opacity:1;" d="M 38.957031 26.871094 L 32.355469 26.871094 C 32.4375 27.507812 32.644531 28.144531 33 28.699219 C 33.375 29.25 33.894531 29.683594 34.519531 29.929688 C 35.355469 30.277344 36.269531 30.460938 37.1875 30.441406 C 37.917969 30.421875 38.644531 30.359375 39.355469 30.214844 C 40 30.132812 40.625 29.96875 41.207031 29.742188 C 41.3125 29.660156 41.375 29.703125 41.375 29.90625 L 41.375 33.046875 C 41.375 33.128906 41.355469 33.210938 41.332031 33.292969 C 41.292969 33.355469 41.25 33.394531 41.1875 33.4375 C 40.519531 33.722656 39.832031 33.929688 39.105469 34.050781 C 38.125 34.234375 37.144531 34.316406 36.144531 34.296875 C 34.5625 34.296875 33.230469 34.050781 32.144531 33.578125 C 31.125 33.148438 30.230469 32.472656 29.519531 31.628906 C 28.855469 30.832031 28.375 29.929688 28.082031 28.945312 C 27.792969 27.980469 27.644531 26.972656 27.644531 25.949219 C 27.644531 24.839844 27.8125 23.753906 28.167969 22.6875 C 28.5 21.660156 29.019531 20.71875 29.730469 19.875 C 30.417969 19.054688 31.269531 18.398438 32.25 17.929688 C 33.230469 17.457031 34.394531 17.292969 35.730469 17.292969 C 36.832031 17.273438 37.9375 17.476562 38.957031 17.929688 C 39.8125 18.296875 40.5625 18.851562 41.144531 19.570312 C 41.6875 20.265625 42.125 21.046875 42.394531 21.90625 C 42.667969 22.726562 42.792969 23.570312 42.792969 24.410156 C 42.792969 24.902344 42.769531 25.332031 42.75 25.722656 C 42.707031 26.113281 42.6875 26.398438 42.667969 26.585938 C 42.644531 26.726562 42.519531 26.851562 42.375 26.851562 C 42.25 26.851562 42.019531 26.871094 41.6875 26.890625 C 41.355469 26.933594 40.957031 26.953125 40.480469 26.953125 C 40 26.953125 39.5 26.871094 38.957031 26.871094 Z M 32.355469 23.875 L 36.75 23.875 C 37.292969 23.875 37.6875 23.875 37.9375 23.855469 C 38.105469 23.835938 38.269531 23.792969 38.417969 23.691406 L 38.417969 23.488281 C 38.417969 23.21875 38.375 22.972656 38.292969 22.726562 C 37.917969 21.578125 36.8125 20.800781 35.582031 20.839844 C 34.4375 20.78125 33.355469 21.375 32.8125 22.398438 C 32.5625 22.871094 32.417969 23.363281 32.355469 23.875 Z M 32.355469 23.875 "/>
</g>
</svg>
