<?xml version="1.0" encoding="UTF-8"?>
<svg xmlns="http://www.w3.org/2000/svg" xmlns:xlink="http://www.w3.org/1999/xlink" width="50px" height="50px" viewBox="0 0 50 48" version="1.1">
<g id="surface1">
<path style=" stroke:none;fill-rule:nonzero;fill:rgb(0%,0%,35.686275%);fill-opacity:1;" d="M 8.855469 0 L 41.144531 0 C 46.042969 0 50 3.898438 50 8.71875 L 50 39.28125 C 50 44.101562 46.042969 48 41.144531 48 L 8.855469 48 C 3.957031 48 0 44.101562 0 39.28125 L 0 8.71875 C 0 3.898438 3.957031 0 8.855469 0 Z M 8.855469 0 "/>
<path style=" stroke:none;fill-rule:nonzero;fill:rgb(60.000002%,60.000002%,100%);fill-opacity:1;" d="M 11.875 33.640625 L 11.875 12.511719 C 11.875 12.371094 11.9375 12.289062 12.082031 12.289062 C 12.4375 12.289062 12.769531 12.289062 13.25 12.265625 C 13.75 12.246094 14.269531 12.246094 14.832031 12.226562 C 15.394531 12.207031 16 12.207031 16.644531 12.183594 C 17.292969 12.164062 17.917969 12.164062 18.542969 12.164062 C 20.25 12.164062 21.667969 12.371094 22.832031 12.800781 C 23.875 13.148438 24.832031 13.722656 25.625 14.480469 C 26.292969 15.136719 26.8125 15.9375 27.144531 16.820312 C 27.457031 17.683594 27.625 18.5625 27.625 19.488281 C 27.625 21.25 27.207031 22.707031 26.375 23.855469 C 25.542969 25.003906 24.375 25.867188 23.019531 26.359375 C 21.605469 26.871094 20.042969 27.054688 18.332031 27.054688 C 17.832031 27.054688 17.5 27.054688 17.292969 27.035156 C 17.082031 27.015625 16.792969 27.015625 16.394531 27.015625 L 16.394531 33.601562 C 16.417969 33.742188 16.3125 33.867188 16.167969 33.886719 L 12.125 33.886719 C 11.957031 33.886719 11.875 33.804688 11.875 33.621094 Z M 16.417969 16.265625 L 16.417969 23.160156 C 16.707031 23.179688 16.980469 23.199219 17.230469 23.199219 L 18.332031 23.199219 C 19.144531 23.199219 19.957031 23.078125 20.730469 22.832031 C 21.394531 22.644531 21.980469 22.257812 22.4375 21.742188 C 22.875 21.230469 23.082031 20.535156 23.082031 19.628906 C 23.105469 18.996094 22.9375 18.359375 22.605469 17.804688 C 22.25 17.273438 21.75 16.863281 21.144531 16.636719 C 20.375 16.328125 19.542969 16.207031 18.6875 16.226562 C 18.144531 16.226562 17.667969 16.226562 17.269531 16.246094 C 16.855469 16.226562 16.5625 16.246094 16.417969 16.265625 Z M 16.417969 16.265625 "/>
<path style=" stroke:none;fill-rule:nonzero;fill:rgb(60.000002%,60.000002%,100%);fill-opacity:1;" d="M 30.625 17.476562 L 34.269531 17.476562 C 34.480469 17.476562 34.644531 17.621094 34.707031 17.804688 C 34.769531 17.96875 34.8125 18.132812 34.832031 18.316406 C 34.875 18.523438 34.917969 18.75 34.9375 18.953125 C 34.957031 19.179688 34.980469 19.425781 34.980469 19.691406 C 35.605469 18.972656 36.355469 18.378906 37.207031 17.929688 C 38.167969 17.394531 39.269531 17.128906 40.375 17.128906 C 40.519531 17.109375 40.644531 17.210938 40.667969 17.355469 L 40.667969 21.4375 C 40.667969 21.601562 40.5625 21.660156 40.332031 21.660156 C 39.582031 21.640625 38.8125 21.703125 38.082031 21.867188 C 37.480469 21.988281 36.894531 22.175781 36.332031 22.421875 C 35.9375 22.605469 35.5625 22.851562 35.269531 23.179688 L 35.269531 33.640625 C 35.269531 33.847656 35.1875 33.929688 35 33.929688 L 30.894531 33.929688 C 30.730469 33.949219 30.582031 33.847656 30.5625 33.683594 L 30.5625 22.234375 C 30.5625 21.742188 30.5625 21.230469 30.542969 20.699219 C 30.519531 20.164062 30.519531 19.628906 30.5 19.097656 C 30.5 18.625 30.457031 18.175781 30.417969 17.703125 C 30.394531 17.601562 30.457031 17.496094 30.5625 17.476562 C 30.5625 17.457031 30.605469 17.457031 30.625 17.476562 Z M 30.625 17.476562 "/>
</g>
</svg>
